<?xml version="1.0" standalone="no"?>
<!DOCTYPE svg PUBLIC "-//W3C//DTD SVG 20010904//EN"
 "http://www.w3.org/TR/2001/REC-SVG-20010904/DTD/svg10.dtd">
<svg version="1.0" xmlns="http://www.w3.org/2000/svg"
 width="1000.000000pt" height="1000.000000pt" viewBox="0 0 1000.000000 1000.000000"
 preserveAspectRatio="xMidYMid meet">
<metadata>
Created by potrace 1.11, written by Peter Selinger 2001-2013
</metadata>
<g transform="translate(0.000000,1000.000000) scale(0.100000,-0.100000)"
fill="#000000" stroke="none">
<path d="M4797 9994 c-1 -1 -54 -5 -117 -8 -63 -3 -126 -8 -140 -11 -14 -2
-52 -6 -85 -9 -75 -6 -267 -34 -286 -41 -8 -3 -32 -7 -54 -9 -44 -4 -329 -67
-415 -92 -30 -8 -80 -22 -110 -30 -85 -24 -283 -92 -405 -140 -100 -39 -139
-55 -275 -116 -271 -121 -624 -332 -896 -534 -109 -80 -328 -260 -390 -319
-190 -182 -274 -269 -374 -385 -36 -41 -67 -77 -70 -80 -50 -50 -228 -290
-338 -455 -51 -77 -97 -145 -102 -152 -6 -7 -10 -15 -10 -17 0 -3 -19 -36 -42
-73 -103 -168 -277 -536 -371 -783 -132 -350 -249 -838 -282 -1180 -4 -36 -8
-76 -11 -89 -9 -61 -18 -283 -18 -461 0 -182 11 -466 18 -479 2 -3 7 -43 10
-88 4 -46 9 -91 11 -102 2 -10 6 -36 9 -57 3 -22 8 -50 11 -64 2 -14 7 -43 10
-65 3 -22 7 -47 10 -55 2 -8 6 -32 9 -52 7 -43 19 -98 47 -218 12 -47 22 -92
24 -100 26 -111 124 -407 190 -575 47 -120 158 -362 200 -439 12 -23 46 -86
75 -141 56 -104 168 -287 255 -414 50 -73 252 -341 264 -351 4 -3 17 -18 29
-33 65 -86 343 -376 467 -488 236 -214 580 -464 860 -624 108 -62 468 -245
483 -245 4 0 30 -11 58 -23 44 -21 128 -55 309 -122 59 -23 318 -103 352 -110
10 -2 54 -12 98 -24 86 -21 294 -65 360 -75 42 -7 79 -13 130 -21 17 -3 48 -7
70 -10 40 -5 67 -8 205 -22 159 -17 863 -8 980 12 14 2 52 7 84 10 32 3 95 12
140 20 45 7 99 16 121 20 22 3 110 21 194 40 743 167 1455 511 2053 992 127
101 158 128 287 248 527 490 959 1126 1226 1805 90 228 199 581 229 740 2 14
9 45 15 70 20 90 60 330 67 405 2 28 6 59 9 70 28 125 28 896 0 1100 -2 17 -7
53 -10 80 -6 50 -40 267 -50 315 -2 14 -10 50 -16 80 -66 326 -204 741 -356
1070 -187 406 -469 847 -738 1155 -14 17 -49 57 -78 90 -133 152 -377 384
-582 554 -144 119 -455 332 -646 441 -115 65 -341 180 -484 245 -188 85 -518
201 -715 251 -8 2 -60 15 -115 29 -55 14 -116 28 -135 31 -19 3 -38 8 -41 9
-3 2 -32 9 -65 14 -32 6 -70 12 -84 15 -14 2 -59 10 -100 16 -255 40 -424 52
-733 54 -125 1 -228 1 -230 0z m503 -1878 c30 -4 70 -8 88 -11 18 -3 54 -8 79
-11 68 -8 268 -50 353 -74 41 -11 85 -23 98 -26 114 -24 558 -221 687 -304
289 -186 426 -293 613 -478 330 -326 587 -732 742 -1175 49 -140 111 -371 125
-467 3 -19 10 -57 15 -85 45 -232 47 -720 4 -945 -2 -14 -7 -43 -10 -65 -8
-56 -41 -206 -65 -295 -160 -586 -490 -1120 -940 -1522 -73 -66 -96 -85 -135
-113 -15 -11 -32 -24 -38 -30 -22 -20 -122 -92 -191 -136 -300 -195 -599 -328
-930 -414 -71 -18 -143 -35 -160 -38 -16 -3 -70 -12 -120 -21 -226 -38 -551
-52 -766 -32 -41 4 -96 9 -124 12 -51 5 -197 29 -292 48 -75 15 -269 72 -365
107 -62 23 -131 48 -153 56 -167 60 -526 265 -697 397 -14 12 -41 32 -59 46
-132 100 -356 319 -464 454 -16 20 -35 43 -40 49 -35 40 -111 146 -168 232
-290 445 -457 927 -504 1450 -13 157 -5 626 12 655 2 3 6 34 10 70 4 36 8 67
10 70 2 3 6 26 10 50 19 130 81 352 153 545 116 309 305 632 526 895 76 91
272 292 346 355 260 221 555 403 864 530 173 71 423 147 566 171 14 2 45 8 70
14 25 5 70 12 100 16 30 3 63 8 72 9 9 2 57 7 105 10 48 4 89 8 91 10 5 5 421
-3 482 -9z"/>
</g>
</svg>
